<?xml version="1.0" encoding="UTF-8" standalone="no"?>
<svg
   version="1.1"
   id="Layer_1"
   x="0px"
   y="0px"
   width="824"
   viewBox="0 0 824 274"
   enable-background="new 0 0 1024 1024"
   xml:space="preserve"
   sodipodi:docname="logo_1.svg"
   height="274"
   inkscape:version="1.4.2 (ebf0e940, 2025-05-08)"
   xmlns:inkscape="http://www.inkscape.org/namespaces/inkscape"
   xmlns:sodipodi="http://sodipodi.sourceforge.net/DTD/sodipodi-0.dtd"
   xmlns="http://www.w3.org/2000/svg"
   xmlns:svg="http://www.w3.org/2000/svg"><defs
   id="defs2"><rect
     x="347.07693"
     y="61.538464"
     width="557.53845"
     height="169.84615"
     id="rect2" /></defs><sodipodi:namedview
   id="namedview2"
   pagecolor="#ffffff"
   bordercolor="#000000"
   borderopacity="0.25"
   inkscape:showpageshadow="2"
   inkscape:pageopacity="0.0"
   inkscape:pagecheckerboard="0"
   inkscape:deskcolor="#d1d1d1"
   inkscape:zoom="0.8125"
   inkscape:cx="511.38462"
   inkscape:cy="534.76923"
   inkscape:window-width="2048"
   inkscape:window-height="1176"
   inkscape:window-x="877"
   inkscape:window-y="35"
   inkscape:window-maximized="0"
   inkscape:current-layer="Layer_1" />
<path
   fill="#000000"
   opacity="1"
   stroke="none"
   d="m 227.9539,220.93873 c -16.72876,3.22261 -33.32942,6.43055 -49.92894,9.64439 -1.62118,0.31389 -3.23475,0.66701 -4.85296,0.99641 -2.43828,0.49629 -4.36727,-0.67531 -4.68503,-3.1673 -0.54471,-4.27145 -1.42818,-8.48567 -1.99605,-12.74857 -0.58245,-4.37219 -0.54098,-4.45401 -4.78912,-3.76439 -5.87456,0.95367 -11.72651,2.04583 -17.59202,3.05618 -7.86373,1.35458 -15.2794,-0.0138 -22.13098,-4.02499 -13.09799,-7.66802 -26.407519,-14.96111 -39.576979,-22.50167 -5.78092,-3.31006 -11.54337,-6.65415 -17.37115,-9.87994 -3.42386,-1.89519 -5.01386,-4.66193 -4.97517,-8.56375 0.0695,-7.01387 0.0127,-14.02899 0.003,-21.04359 -0.003,-1.95296 -0.0112,-1.95186 -2.02029,-1.97003 -1.20242,-0.0109 -2.40693,0.0151 -3.60675,-0.0474 -2.50696,-0.13058 -3.98409,-1.63086 -4.00567,-4.12206 -0.0347,-4.00807 -0.0337,-8.0168 -0.006,-12.02496 0.0172,-2.50483 1.51886,-4.01869 4.02547,-4.07682 1.60205,-0.0371 3.20635,0.0128 4.80946,0.0361 0.69194,0.01 1.26795,-0.0934 1.56638,-0.85721 2.47086,-6.32425 7.51481,-8.67861 13.8953,-9.16972 5.68427,-0.43752 11.35288,-1.08259 17.02589,-1.66076 4.12932,-0.42083 8.25458,-0.88143 12.381509,-1.32569 0.38744,-0.0417 0.81038,0.061 1.23939,-0.37081 -0.54625,-2.20955 -1.55438,-4.32356 -2.45119,-6.47005 C 97.858401,94.786375 91.424201,83.411435 84.731011,72.173115 c -0.79439,-1.33385 -1.6199,-2.65129 -2.35997,-4.01487 -1.08066,-1.99116 -0.31693,-3.58128 1.93742,-3.92214 1.47972,-0.22374 2.99015,-0.2483 4.48767,-0.34974 7.88816,-0.53427 15.777319,-1.0541 23.664729,-1.59926 8.03698,-0.55549 16.07105,-1.15341 24.10883,-1.69669 5.393,-0.36452 10.79048,-0.66259 16.18551,-0.99746 3.14596,-0.19528 6.29324,-0.3764 9.43566,-0.61917 1.59372,-0.12312 2.69834,0.54242 3.49003,1.85608 6.41081,10.63743 13.12866,21.09527 18.76144,32.18715 1.97492,3.88895 3.66159,7.905195 5.34327,11.923005 0.39019,0.93223 0.80505,1.24859 1.89185,1.10525 4.76721,-0.62874 9.27323,0.0157 13.68157,2.23907 8.09056,4.08061 16.27798,7.98767 24.55827,11.66718 5.58117,2.48009 8.60183,6.52872 9.54488,12.46328 0.5797,3.64811 1.49055,7.24462 2.28334,10.85759 1.47371,6.71601 5.32784,11.76152 10.9366,15.5929 1.77761,1.21428 3.47111,2.55141 5.20922,3.82394 1.74858,1.2802 2.57371,3.0127 2.57187,5.163 -0.006,6.86429 0.0126,13.72871 -0.0241,20.59284 -0.0169,3.15706 -1.61655,5.15485 -4.66443,6.01783 -0.33715,0.0955 -0.67323,0.19804 -1.01516,0.27289 -3.49807,0.76552 -2.85708,0.53973 -2.26496,3.58696 0.88631,4.56102 2.50857,8.83786 5.33309,12.61707 1.51895,2.03236 0.61934,4.07562 -1.90453,4.5692 -9.27855,1.81452 -18.56035,3.61249 -27.96936,5.42969 m -54.39022,5.02026 c 0.32367,0.23344 0.66039,0.12851 1.00806,0.0604 11.04173,-2.16118 22.07934,-4.3438 33.12832,-6.4674 12.66932,-2.43504 25.34964,-4.8129 38.02313,-7.22636 2.036,-0.38771 4.06133,-0.83152 6.19552,-1.2708 -0.18481,-0.48393 -0.24291,-0.72476 -0.36081,-0.93149 -1.65076,-2.89369 -2.75555,-5.99547 -3.5423,-9.22083 -1.30286,-5.34124 -2.0827,-10.80036 -3.84233,-16.04128 -3.8936,-11.59678 -11.21347,-20.1502 -22.18324,-25.63112 -2.45649,-1.22737 -4.73023,-1.69978 -7.55445,-1.23104 -12.13444,2.01386 -24.318,3.73248 -36.48635,5.54074 -10.14113,1.507 -20.28595,2.98937 -30.42937,4.48105 -0.48029,0.0706 -0.99892,0.0396 -1.33195,0.54564 0.51557,0.67371 1.26604,0.99641 1.93309,1.41372 6.7004,4.19164 11.86584,9.78274 15.43281,16.84359 2.49715,4.94313 4.23489,10.15588 5.491,15.53484 1.80795,7.74192 2.8965,15.61927 4.51887,23.60029 m -61.8111,-108.53909 c 0.47662,1.78631 0.9002,3.58909 1.448,5.35331 0.38346,1.23501 0.18001,2.85166 1.14422,3.64545 1.01949,0.83931 2.49545,-0.0286 3.77523,-0.0622 0.30016,-0.008 0.60144,-0.0218 0.8994,-0.0568 12.56642,-1.47595 25.13275,-2.95279 37.69861,-4.43347 10.03299,-1.18222 20.06603,-2.36425 30.09755,-3.55885 2.0419,-0.24315 2.07407,-0.32084 1.5188,-2.36254 -1.84576,-6.78693 -4.45281,-13.28775 -7.57799,-19.571115 -5.35944,-10.77549 -11.72148,-20.97376 -18.12039,-31.1494 -0.67861,-1.07912 -1.47423,-1.27292 -2.62906,-1.17699 -4.98539,0.41414 -9.97436,0.79152 -14.96601,1.12248 -6.84021,0.45352 -13.68646,0.81686 -20.5257,1.28357 -11.1803,0.76292 -22.35713,1.57657 -33.535019,2.37436 -0.77186,0.0551 -1.56405,0.0658 -2.33363,0.5201 0.24904,0.4327 0.4322,0.78308 0.64444,1.11486 2.96975,4.64244 5.66507,9.44487 8.31466,14.27345 5.696389,10.3811 10.634469,21.091795 14.146889,32.683815 m 4.19979,58.28161 c 7.21032,9.93558 16.81163,14.84951 29.19581,13.79553 2.43782,-0.20744 4.85783,-0.6625 7.27388,-1.07475 1.83862,-0.31374 3.7363,-0.42524 5.48326,-1.19514 -1.17566,-3.20193 -1.47549,-3.26173 -4.61981,-2.76869 -4.33571,0.67988 -8.63686,1.70137 -13.09701,1.34685 -11.96931,-0.95139 -21.83319,-9.21487 -24.92222,-20.87292 -1.56464,-5.90505 -2.94799,-11.85146 -4.09181,-17.84723 -0.97708,-5.12163 -3.61883,-8.84322 -8.22916,-11.35345 -5.056569,-2.7532 -9.976199,-5.75791 -14.955629,-8.65281 -2.81433,-1.63618 -5.59926,-3.32596 -8.45265,-4.89092 -2.33023,-1.27803 -5.71556,-1.02586 -7.36921,0.47315 1.54234,0.45769 2.97855,1.03302 4.31368,1.81981 8.37193,4.93361 16.72596,9.89776 25.113629,14.80443 2.81308,1.6456 4.56144,4.04134 5.29333,7.15168 0.95066,4.0401 1.76142,8.11293 2.66366,12.1647 1.31934,5.92492 2.75347,11.81127 6.40025,17.09976 m 64.50957,-17.49635 c 8.81103,-1.2859 17.62074,-2.58083 26.43353,-3.8545 5.84249,-0.84437 11.69127,-1.64535 17.53262,-2.49744 1.06565,-0.15544 1.59796,0.20134 1.77292,1.26363 0.16224,0.98508 0.42717,1.95327 0.64736,2.92879 0.281,1.2449 1.08708,1.80566 2.31072,1.56115 1.25068,-0.24992 1.51254,-1.16666 1.256,-2.3016 -0.24265,-1.07343 -0.51784,-2.14019 -0.73298,-3.21903 -0.70234,-3.52202 -1.99555,-4.3409 -5.60692,-3.7614 -4.98667,0.8002 -9.98564,1.52707 -14.98651,2.23453 -7.72171,1.09232 -15.45135,2.12839 -23.17424,3.21255 -9.50694,1.33459 -19.01106,2.6895 -28.51518,4.04424 -7.07913,1.00907 -14.1588,2.01502 -21.23238,3.06195 -1.47787,0.21876 -2.73451,1.00186 -3.07534,2.51394 -0.40361,1.79052 0.0318,3.59977 0.63422,5.29782 0.29963,0.8445 1.1365,1.24662 2.1017,1.07055 0.99878,-0.18221 1.23282,-0.88172 1.18575,-1.78302 -0.0339,-0.64961 0.0408,-1.30908 -0.0382,-1.95121 -0.14335,-1.16557 0.42584,-1.62648 1.49133,-1.7662 2.38052,-0.31217 4.75771,-0.65074 7.13372,-0.99606 11.53296,-1.67621 23.06509,-3.35819 34.86189,-5.05869 m -8.14879,-30.09821 c 1.88618,-0.23333 3.77209,-0.46878 5.65856,-0.69961 8.64248,-1.05754 17.28584,-2.10786 25.92729,-3.17364 3.02789,-0.37346 6.05077,-0.78742 9.07706,-1.17417 0.59275,-0.0758 1.06682,-0.29141 1.23855,-0.91152 0.13774,-0.49745 -0.0389,-0.9448 -0.46463,-1.16818 -1.74811,-0.91729 -3.52002,-1.78916 -5.4497,-2.76166 -0.21394,1.65192 -0.80885,2.45969 -2.29423,2.60732 -4.52913,0.45011 -9.0473,1.01207 -13.56811,1.54431 -12.71667,1.49718 -25.43274,2.99962 -38.14865,4.50311 -12.71708,1.5036 -25.43542,2.99696 -38.14668,4.54832 -0.84495,0.10313 -1.90686,-0.12289 -2.63714,0.88019 1.91922,1.35666 3.7151,2.65509 6.22479,2.00092 1.00828,-0.26282 2.07986,-0.28615 3.12382,-0.40815 8.24755,-0.96373 16.49583,-1.92133 24.74304,-2.88797 8.14914,-0.95516 16.29727,-1.91868 24.71603,-2.89927 M 66.515591,148.46503 c 3.8853,4.02616 8.73608,4.01526 11.74943,-0.0264 3.8,-5.09684 3.25146,-13.64271 -1.16882,-18.20961 -3.5995,-3.71887 -8.91382,-3.24935 -11.89734,0.9933 -2.88172,4.09792 -3.2452,12.15551 1.31673,17.24276 m 186.192269,20.16031 c -3.25028,0.67468 -6.50057,1.34937 -9.82719,2.0399 0.25009,1.01128 0.87592,1.62461 1.26931,2.35881 0.21422,0.3998 0.45662,0.85294 1.00273,0.7428 3.07184,-0.61954 6.2757,-0.71049 9.15416,-2.11481 1.6204,-0.79054 1.93132,-2.30216 0.92425,-4.09134 -0.758,0.33377 -1.52434,0.6712 -2.52326,1.06464 M 106.28404,120.2495 c -3.13191,0.49805 -6.329439,0.58012 -9.740859,1.29434 2.0077,1.47623 3.952709,2.28235 5.753679,3.33593 0.40796,0.23866 0.83614,0.23156 1.30007,0.15249 1.03052,-0.17564 2.07474,-0.27071 3.10557,-0.44481 0.67709,-0.11437 1.6175,0.15509 1.71521,-0.97744 0.12837,-1.4877 -0.81859,-3.16552 -2.13367,-3.36051 m 93.14986,-3.48735 c 0.64682,-0.10522 1.38078,0.10174 1.95158,-0.4627 -1.76263,-1.58348 -7.74909,-4.23975 -9.0175,-3.98077 0.13619,1.48685 0.7257,2.86869 1.07116,4.30569 0.18715,0.77842 0.82139,0.77612 1.43768,0.70387 1.43481,-0.16823 2.86692,-0.35933 4.55708,-0.56609 m 19.42465,20.95179 c 1.07781,-1.28929 1.15987,-2.27815 0.27614,-3.32807 -0.87048,-1.03419 -2.46076,-1.29887 -3.68883,-0.54991 -1.04333,0.63626 -1.55078,1.5665 -1.16013,2.80108 0.37676,1.19072 1.74145,1.89923 3.16567,1.72911 0.46552,-0.0556 0.86165,-0.23832 1.40715,-0.65221 m 11.04598,-2.46594 c 0.46541,-1.47746 -0.22272,-2.46195 -1.47934,-3.03143 -1.25991,-0.57094 -2.49977,-0.26446 -3.42166,0.74253 -0.8884,0.97044 -0.60904,2.07156 0.10052,3.02216 1.08914,1.45917 3.41979,1.17377 4.80048,-0.73326 z"
   id="path1"
   style="stroke-width:0.300658" />

<text
   xml:space="preserve"
   id="text2"
   style="font-weight:500;font-size:96px;line-height:0;font-family:Futura;-inkscape-font-specification:'Futura Medium';text-align:start;writing-mode:lr-tb;direction:ltr;white-space:pre;shape-inside:url(#rect2);fill:#57e1b5;fill-opacity:0.7"
   transform="translate(-32,81.23077)"><tspan
     x="347.07617"
     y="88.136465"
     id="tspan3"><tspan
       style="font-weight:normal;font-family:Monospace;-inkscape-font-specification:Monospace;fill:#e15761"
       id="tspan1">PRINT(O)</tspan></tspan></text></svg>
